<?xml version="1.0" encoding="utf-8"?>
<!-- Generator: Adobe Illustrator 19.2.1, SVG Export Plug-In . SVG Version: 6.00 Build 0)  -->
<svg version="1.1" id="SITCON" xmlns="http://www.w3.org/2000/svg" xmlns:xlink="http://www.w3.org/1999/xlink" x="0px" y="0px"
	 viewBox="0 0 245.3 69.7" style="enable-background:new 0 0 245.3 69.7;" xml:space="preserve">
<style type="text/css">
	.st0{fill:#FFFFFF;}
</style>
<g>
	<path class="st0" d="M46.6,61.5c-2.4,1.6-4.4,2.4-6,2.4c-2,0-3.6-0.7-4.9-2.1c-1.2-1.4-1.9-3.4-1.9-5.8c0-3.3,1.3-6.5,4-9.6
		c2.6-3,5-4.5,7.3-4.5c1.8,0,3,0.6,3.8,1.9c0.5,0.9,0.8,2.2,0.8,3.8c0,0.7,0,1.3-0.1,1.7c-0.1,0.5-0.2,0.9-0.3,1.2h3.9L56,39
		c-1.3-0.2-2.3-0.4-3.1-0.5c-2.2-0.3-4.1-0.4-5.5-0.4c-6.3,0-11.7,1.6-16,4.7c-4.6,3.3-6.9,7.6-6.9,12.9c0,3.9,1.5,7,4.4,9.2
		c2.7,2,6,3,10,3c2.7,0,5.4-0.5,8-1.6c1.7-0.7,3.4-1.7,4.9-3c0.5-0.5,1.1-1,1.7-1.6l-3.8-2.5C48.4,60.2,47.4,61,46.6,61.5z"/>
	<path class="st0" d="M86,39.5c-0.8-0.6-2.1-1.3-3.8-1.9l-10.1,3.3v2.6c0.3-0.1,0.7-0.2,1-0.2s0.8,0,1.4,0c0.4,0,0.8,0,1.2,0.1
		c0.4,0.1,0.7,0.1,1,0.3c1.2,0.5,2,1.4,2.4,2.6c0.4,0.9,0.5,2.2,0.5,3.7c0,3.3-1.1,6.5-3.2,9.5S72,64,69.4,64
		c-1.9,0-3.4-0.5-4.3-1.6c-1.2-1.3-1.8-3.4-1.8-6.3c0-2.6,0.8-5.4,2.3-8.6c1.1-2.2,2.5-4.4,4.3-6.7c1.4-1.8,2.1-2.7,2.3-2.7h-8
		c-0.2,0-1.1,0.7-2.7,2c-2,1.8-3.7,3.7-4.9,5.8c-1.7,2.9-2.6,5.8-2.6,8.9c0,3.7,1.1,6.7,3.4,8.9c2.4,2.4,5.7,3.6,10,3.6
		c2.6,0,5.3-0.5,8-1.6c3.1-1.2,5.8-2.9,8.1-5.2c2.2-2.3,3.8-4.3,4.8-6.1c1.2-2.1,1.7-4.5,1.7-7.2C89.9,44.2,88.6,41.5,86,39.5z"/>
	<path class="st0" d="M115,47.9h3.7l2.6-9.5c-1.5-0.2-2.8-0.4-3.7-0.5c-2.7-0.3-5-0.4-6.9-0.4c-3.4,0-6.3,0.3-9,0.8
		c-3.3,0.6-5.8,1.7-7.7,3.1c-2.2,1.7-3.3,3.9-3.3,6.6c0,2.7,1.5,4.5,4.5,5.6c2.8,0.6,5.6,1.2,8.5,1.7c2.9,0.6,4.3,1.6,4.3,3.2
		c0,1.6-1.1,2.9-3.2,3.8c-1.8,0.8-3.8,1.2-6.1,1.2c-2.5,0-5-0.5-7.5-1.5c-0.8-0.3-1.8-0.8-3-1.5v5.3c1.6,0.4,2.8,0.7,3.8,0.9
		c2.8,0.6,5.1,0.9,6.9,0.9c4.7,0,8.9-0.9,12.6-2.6c4.2-1.9,6.3-4.4,6.3-7.3c0-2.5-1.5-4.5-4.6-5.8c-2.8-0.7-5.7-1.5-8.6-2.4
		c-2.9-0.8-4.4-1.9-4.4-3.3c0-1.8,0.9-3.1,2.7-4c1.4-0.8,3.3-1.1,5.5-1.1c1.8,0,3,0.1,3.8,0.4c0.7,0.3,1.3,0.7,1.8,1.2
		c0.4,0.5,0.6,1,0.7,1.6c0.1,0.7,0.2,1.4,0.2,2.3c0,0.3,0,0.7,0,1L115,47.9L115,47.9z"/>
	<path class="st0" d="M141.4,61.5c-2.4,1.6-4.3,2.4-6,2.4c-2,0-3.6-0.7-4.9-2.1c-1.2-1.4-1.9-3.4-1.9-5.8c0-3.3,1.3-6.5,4-9.6
		c2.6-3,5-4.5,7.3-4.5c1.8,0,3.1,0.6,3.8,1.9c0.6,0.9,0.8,2.2,0.8,3.8c0,0.7,0,1.3-0.1,1.7c-0.1,0.5-0.2,0.9-0.3,1.2h3.9l2.8-11.6
		c-1.3-0.2-2.3-0.4-3.1-0.5c-2.2-0.3-4.1-0.4-5.5-0.4c-6.3,0-11.7,1.6-16,4.7c-4.6,3.3-6.9,7.6-6.9,12.9c0,3.9,1.5,7,4.4,9.2
		c2.7,2,6,3,10,3c2.7,0,5.4-0.5,8-1.6c1.7-0.7,3.4-1.7,4.9-3c0.5-0.5,1.1-1,1.7-1.6l-3.9-2.5C143.2,60.2,142.2,61,141.4,61.5z"/>
	<path class="st0" d="M176.1,38.2c-0.7,1.9-1.4,3.9-2.1,5.8c-1.7,4.4-3.5,8-5.3,10.8c-2.5,3.9-4.9,5.8-7.1,5.8
		c-1.1,0-1.9-0.3-2.3-0.8c-0.4-0.5-0.7-1.2-0.7-2.1c0-0.4,0.1-0.8,0.2-1.3c0.1-0.5,0.2-0.8,0.2-0.9l4.9-17.4h-9.8l-4.5,15.7
		c-0.2,0.9-0.4,1.6-0.5,2.2c-0.3,1.6-0.4,2.9-0.4,3.9c0,2.5,0.7,4.5,2,5.9c1.4,1.4,3.2,2.2,5.4,2.2c2.3,0,4.7-0.9,7.1-2.6
		c1.7-1.3,3.4-2.9,4.9-4.9c0.6-0.9,1.2-1.7,1.8-2.6c0.1-0.2,0.2-0.3,0.3-0.4c0.2-0.2,0.4-0.4,0.6-0.4c0.2,0,0.3,0.2,0.3,0.5
		c0,0.1,0,0.3-0.1,0.5c0,0.3-0.1,0.4-0.2,0.6l-2.4,8.4h9.8l7.3-29.1h-9.4V38.2z"/>
	<path class="st0" d="M217.1,40c-2.2-1.2-4.8-1.9-7.9-1.9h-17.8l-7.7,29.2h9.5l7-25.9h4.7c1.8,0,3.2,0.6,4.4,1.7
		c1.1,1.1,1.7,2.7,1.7,4.7c0,2.5-1.1,4.4-3.3,5.7c-1.5,0.9-3.5,1.6-6.1,2c-1.1,0.2-2.1,0.2-3.2,0.2l-0.7,2.7c0.3,0,0.6,0.1,0.9,0.1
		c0.3,0,0.8,0,1.4,0c2.9,0,5.6-0.2,8-0.7c3.7-0.7,6.6-1.9,8.7-3.5c2.7-2.1,4.1-4.9,4.1-8.4C220.9,43.5,219.6,41.5,217.1,40z"/>
	<path class="st0" d="M88.7,20.8C88.6,20.9,88.6,20.9,88.7,20.8C88.6,20.9,88.6,20.9,88.7,20.8c5.2,0.2,11.5,2.1,19,6.8l-2.6,4.5
		l16.2-3.6l-5-15.8l-2.6,4.5c-6.5-3.1-12.2-4.3-17.2-4.3c6.2-3.8,16.4-5.8,31.3,3.7l-2.6,4.5l16.2-3.6l-5-15.8l-2.7,4.5
		c-20.4-9.8-33.3-0.8-39.8,6.8c-17.5,1.7-25.4,18.8-25.4,18.8S74.6,20.2,88.7,20.8z"/>
</g>
</svg>
