<?xml version="1.0" encoding="utf-8"?>
<!-- Generator: Adobe Illustrator 17.0.0, SVG Export Plug-In . SVG Version: 6.00 Build 0)  -->
<!DOCTYPE svg PUBLIC "-//W3C//DTD SVG 1.1//EN" "http://www.w3.org/Graphics/SVG/1.1/DTD/svg11.dtd">
<svg version="1.1" id="SITCON" xmlns="http://www.w3.org/2000/svg" xmlns:xlink="http://www.w3.org/1999/xlink" x="0px" y="0px"
	 width="245.305px" height="69.694px" viewBox="0 0 245.305 69.694" enable-background="new 0 0 245.305 69.694"
	 xml:space="preserve">
<g>
	<path fill="#FFFFFF" d="M31.25,36.584c-0.72-6.283-4.68-9.357-11.953-9.357c-6.408,0-10.513,2.596-10.513,6.557
		c0,3.347,2.521,5.327,8.641,6.625l7.777,1.64c5.688,1.229,8.568,2.391,10.872,4.371c2.521,2.117,3.889,5.19,3.889,8.742
		c0,8.605-7.345,13.933-19.01,13.933C8.496,69.094,1.008,63.084,0,52.156h7.128c0.721,7.239,5.761,11.269,14.041,11.269
		c6.913,0,11.81-3.21,11.81-7.786c0-3.415-2.593-5.668-7.633-6.829l-10.801-2.459C5.76,44.37,1.8,40.682,1.8,34.535
		c0-7.991,6.984-13.045,18.002-13.045c11.017,0,16.921,4.849,18.434,15.094H31.25z"/>
	<path fill="#FFFFFF" d="M55.8,68.069h-6.841V22.515H55.8V68.069z"/>
	<path fill="#FFFFFF" d="M84.385,68.069h-6.841V28.183H62.566v-5.668h36.796v5.668H84.385V68.069z"/>
	<path fill="#FFFFFF" d="M137.737,36.789c-1.44-6.011-6.265-9.631-12.889-9.631c-9.217,0-15.266,7.104-15.266,17.826
		c0,10.996,6.049,18.44,15.049,18.44c7.489,0,12.674-4.78,13.754-12.703h6.912c-0.576,4.508-1.656,7.376-4.104,10.586
		c-3.96,5.19-9.505,7.786-16.705,7.786c-7.129,0-12.817-2.596-16.85-7.786c-3.456-4.439-5.257-9.972-5.257-16.187
		c0-13.864,9.289-23.631,22.467-23.631c10.225,0,17.497,5.464,19.585,14.684L137.737,36.789z"/>
	<path fill="#FFFFFF" d="M238.392,68.069l-19.657-28.754c-2.377-3.551-3.816-5.805-4.969-7.854c0.144,2.049,0.216,6.352,0.216,8.605
		v28.002h-6.48V22.515h6.984l18.866,27.729c1.8,2.596,4.248,6.693,5.688,9.426c-0.145-2.527-0.217-5.327-0.217-8.537V22.787h6.481
		v45.282H238.392z"/>
	<g>
		<path fill="#FFFFFF" d="M184.145,2.164c4.056-3.102,8.876-1.957,8.876-1.957s-0.805,5.762-4.861,8.864
			c-4.057,3.102-9.828,2.369-9.828,2.369s1.255-1.902,2.513-4.376C181.579,5.619,182.65,3.307,184.145,2.164z"/>
		<path fill="#FFFFFF" d="M174.411,6.857c-1.894-1.448-4.145-0.914-4.145-0.914s0.376,2.691,2.27,4.139
			c1.894,1.449,4.589,1.106,4.589,1.106s-0.586-0.888-1.173-2.043C175.609,8.47,175.109,7.391,174.411,6.857z"/>
		<path fill="#FFFFFF" d="M174.871,20.592c0.554,0,1.108,0.025,1.661,0.061c-0.494-2.948-0.397-6.018,1.118-8.654
			c-2.651,2.135-3.942,5.404-4.61,8.667C173.649,20.622,174.26,20.592,174.871,20.592z"/>
		<path fill="#FFFFFF" d="M174.871,21.579c-13.286,0-24.057,10.771-24.057,24.057s10.771,24.057,24.057,24.057
			c13.286,0,24.057-10.771,24.057-24.057S188.157,21.579,174.871,21.579z M184.7,55.466l-9.83-6.765l-9.83,6.765l6.765-9.83
			l-6.765-9.83l9.83,6.765l9.83-6.765l-6.765,9.83L184.7,55.466z"/>
	</g>
</g>
</svg>
