<?xml version="1.0" encoding="UTF-8"?>
<!DOCTYPE svg PUBLIC "-//W3C//DTD SVG 1.1//EN" "http://www.w3.org/Graphics/SVG/1.1/DTD/svg11.dtd">
<svg version="1.1" xmlns="http://www.w3.org/2000/svg" xmlns:xlink="http://www.w3.org/1999/xlink" x="0" y="0" width="250" height="72" viewBox="0, 0, 250, 72">
  <g>
      <path d="M22.15,20.648 C34.131,20.648 40.901,26.195 42.563,37.45 C42.741,38.658 41.805,39.742 40.584,39.742 L33.598,39.742 C32.582,39.742 31.727,38.98 31.611,37.97 C31.015,32.767 27.966,30.385 21.645,30.385 C16.223,30.385 13.132,32.32 13.132,34.942 C13.132,37.118 14.914,38.492 20.186,39.61 L27.972,41.252 C33.948,42.543 37.114,43.817 39.708,46.046 C42.693,48.552 44.311,52.19 44.311,56.32 C44.311,66.169 35.987,72.253 23.301,72.253 C9.839,72.252 1.463,65.493 0.357,53.498 C0.248,52.326 1.171,51.314 2.348,51.314 L9.476,51.314 C10.504,51.314 11.364,52.093 11.466,53.116 C12.079,59.271 16.21,62.583 23.517,62.583 C29.468,62.583 33.327,60.043 33.327,56.797 C33.327,54.51 31.515,52.901 27.25,51.918 L16.453,49.46 C6.857,47.296 2.148,42.926 2.148,35.693 C2.148,26.435 10.137,20.648 22.15,20.648 z M22.15,24.648 C12.12,24.648 6.148,28.974 6.148,35.693 C6.148,40.767 9.377,43.764 17.337,45.559 L28.143,48.019 C34.029,49.375 37.327,52.304 37.327,56.797 C37.327,62.69 31.412,66.583 23.517,66.583 C15.254,66.424 10.049,63.408 7.781,55.314 L4.681,55.314 C6.816,65.003 14.109,67.981 23.301,68.253 C34,68.253 40.311,63.641 40.311,56.32 C40.311,53.347 39.195,50.839 37.119,49.095 C35.115,47.373 32.511,46.325 27.137,45.164 L19.358,43.523 C12.458,42.06 9.132,39.496 9.132,34.942 C9.132,29.616 14.293,26.385 21.645,26.385 C28.686,26.493 33.27,28.753 35.256,35.742 L38.127,35.742 C36.09,27.339 30.224,24.864 22.15,24.648 z" fill="#FFFFFF"/>
      <path d="M58.148,21.673 C59.253,21.673 60.148,22.568 60.148,23.673 L60.148,69.227 C60.148,70.332 59.253,71.227 58.148,71.227 L51.307,71.227 C50.203,71.227 49.307,70.332 49.307,69.227 L49.307,23.673 C49.307,22.568 50.203,21.673 51.307,21.673 L58.148,21.673 z M56.148,25.673 L53.307,25.673 L53.307,67.227 L56.148,67.227 L56.148,25.673 z" fill="#FFFFFF"/>
      <path d="M101.71,21.673 C102.815,21.673 103.71,22.568 103.71,23.673 L103.71,29.341 C103.71,30.446 102.815,31.341 101.71,31.341 L88.733,31.341 L88.733,69.227 C88.733,70.332 87.838,71.227 86.733,71.227 L79.892,71.227 C78.788,71.227 77.892,70.332 77.892,69.227 L77.892,31.341 L64.914,31.341 C63.81,31.341 62.914,30.446 62.914,29.341 L62.914,23.673 C62.914,22.568 63.81,21.673 64.914,21.673 L101.71,21.673 z M99.71,25.673 L66.914,25.673 L66.914,27.341 L79.892,27.341 C80.997,27.341 81.892,28.236 81.892,29.341 L81.892,67.227 L84.733,67.227 L84.733,29.341 C84.733,28.236 85.629,27.341 86.733,27.341 L99.71,27.341 L99.71,25.673 z" fill="#FFFFFF"/>
      <path d="M127.196,20.647 C138.326,20.647 146.43,26.727 148.732,36.889 C148.999,38.068 148.168,39.212 146.964,39.323 L140.268,39.939 C139.278,40.03 138.372,39.38 138.14,38.413 C136.919,33.316 132.908,30.316 127.196,30.316 C119.172,30.316 113.93,36.447 113.93,46.142 C113.93,56.125 119.193,62.582 126.979,62.582 C133.447,62.582 137.804,58.56 138.751,51.609 C138.887,50.618 139.733,49.879 140.733,49.879 L147.645,49.879 C148.85,49.879 149.782,50.937 149.629,52.132 C149.004,57.025 147.777,60.209 145.131,63.678 C140.777,69.385 134.634,72.251 126.836,72.251 C119.08,72.251 112.815,69.365 108.408,63.694 C104.668,58.891 102.729,52.922 102.729,46.278 C102.729,31.333 112.889,20.647 127.196,20.647 z M127.196,24.647 C115.145,24.647 106.729,33.498 106.729,46.278 C106.729,52.054 108.387,57.155 111.565,61.238 C115.194,65.907 120.282,68.251 126.836,68.251 C133.419,68.251 138.375,65.939 141.951,61.252 C143.737,59.104 144.648,56.555 145.265,53.879 L142.401,53.879 C140.391,61.857 135.226,66.243 126.979,66.582 C116.783,66.582 109.93,58.174 109.93,46.142 C109.93,34.364 116.811,26.316 127.196,26.316 C134.022,26.375 138.875,29.563 141.502,35.808 L144.145,35.565 C141.558,28.073 134.694,24.894 127.196,24.647 z" fill="#FFFFFF"/>
      <path d="M216.834,21.673 C217.496,21.673 218.115,22.001 218.488,22.548 L237.344,50.262 C238.435,51.876 237.819,50.945 239.176,53.068 L239.171,52.291 L239.171,23.945 C239.171,22.84 240.067,21.945 241.171,21.945 L247.652,21.945 C248.757,21.945 249.652,22.84 249.652,23.945 L249.652,69.227 C249.652,70.332 248.757,71.227 247.652,71.227 L240.74,71.227 C240.08,71.227 239.462,70.901 239.089,70.356 L219.421,41.586 C218.462,40.147 218.826,40.7 218.321,39.93 L218.33,41.224 L218.33,69.226 C218.33,70.331 217.435,71.226 216.33,71.226 L209.85,71.226 C208.746,71.226 207.85,70.331 207.85,69.226 L207.85,23.673 C207.85,22.568 208.746,21.673 209.85,21.673 L216.834,21.673 z M215.776,25.673 L211.85,25.673 L211.85,67.226 L214.33,67.226 L214.33,41.224 C214.33,38.476 214.241,34.501 214.119,32.759 C213.969,30.631 216.811,29.779 217.857,31.638 C218.939,33.562 220.299,35.707 222.734,39.344 L241.796,67.227 L245.652,67.227 L245.652,25.945 L243.171,25.945 L243.171,52.291 C243.171,55.452 243.242,58.217 243.385,60.713 C243.508,62.86 240.621,63.662 239.619,61.76 C238.156,58.984 235.745,54.977 234.047,52.527 L215.776,25.673 z" fill="#FFFFFF"/>
      <path d="M193.175,-0.851 L195.039,-0.72 C195.393,-0.672 195.661,-0.621 195.831,-0.581 C196.835,-0.342 197.493,0.62 197.35,1.642 C197.291,2.064 197.154,2.743 196.913,3.595 C196.514,5.005 195.952,6.417 195.193,7.749 C194.277,9.357 193.131,10.741 191.723,11.818 C190.674,12.62 189.494,13.239 188.212,13.696 C185.732,14.579 183.182,14.789 180.954,14.631 C180.716,14.614 180.538,14.596 180.428,14.582 C178.959,14.396 178.195,12.733 179.011,11.497 C179.043,11.447 179.11,11.344 179.206,11.193 C179.369,10.934 179.552,10.638 179.75,10.309 C180.316,9.365 180.883,8.353 181.41,7.316 C181.445,7.246 181.807,6.527 181.928,6.289 C182.16,5.836 182.369,5.447 182.584,5.069 C183.416,3.615 184.257,2.514 185.278,1.733 L185.278,1.733 C185.92,1.243 186.597,0.825 187.306,0.478 C190.495,-0.775 188.575,-0.195 193.175,-0.851 z M192.825,3.202 C189.948,3.605 191.182,3.245 189.067,4.069 C188.592,4.302 188.138,4.582 187.708,4.911 L187.708,4.911 C187.199,5.3 186.647,6.022 186.057,7.054 C185.876,7.371 185.695,7.709 185.489,8.112 C185.376,8.333 185.019,9.044 184.976,9.129 L184.258,10.477 C185.933,10.28 185.059,10.448 186.87,9.928 C187.777,9.604 188.591,9.178 189.293,8.64 C190.245,7.913 191.051,6.939 191.718,5.769 C192.641,3.864 192.299,4.731 192.825,3.202 z" fill="#FFFFFF"/>
      <path d="M173.642,5 C176.152,5.36 175.103,5.043 176.848,5.73 C177.241,5.922 177.618,6.154 177.974,6.426 L177.974,6.427 C178.587,6.896 179.057,7.51 179.51,8.302 C179.62,8.494 179.724,8.69 179.84,8.915 C179.899,9.03 180.068,9.368 180.083,9.397 C180.317,9.857 180.569,10.308 180.822,10.728 C180.971,10.977 181.084,11.156 181.142,11.244 C181.958,12.48 181.194,14.143 179.726,14.33 C179.655,14.339 179.552,14.349 179.421,14.359 C178.246,14.442 176.918,14.333 175.599,13.864 C174.9,13.615 174.251,13.274 173.669,12.829 C172.89,12.233 172.264,11.477 171.77,10.609 C171.085,9.407 170.753,8.236 170.633,7.378 C170.491,6.356 171.149,5.393 172.152,5.155 C172.265,5.128 172.424,5.098 172.625,5.071 L173.642,5 z" fill="#FFFFFF"/>
      <path d="M180.086,11.209 L180.737,11.292 C182.081,11.817 182.139,13.026 181.732,14.154 C180.614,16.1 180.36,18.543 180.853,21.48 C181.066,22.752 180.037,23.891 178.75,23.807 C178.171,23.769 177.68,23.75 177.219,23.75 C176.708,23.75 176.164,23.773 175.532,23.819 C174.21,23.914 173.163,22.721 173.429,21.423 C174.296,17.184 175.942,13.856 178.744,11.599 L179.412,11.232 L180.086,11.209 z" fill="#FFFFFF"/>
      <path d="M177.219,20.737 C191.61,20.737 203.276,32.403 203.276,46.794 C203.276,61.185 191.61,72.851 177.219,72.851 C162.829,72.851 151.162,61.185 151.162,46.794 C151.162,32.403 162.829,20.737 177.219,20.737 z M177.219,24.737 C165.038,24.737 155.162,34.613 155.162,46.794 C155.162,58.975 165.038,68.851 177.219,68.851 C189.401,68.851 199.276,58.975 199.276,46.794 C199.276,34.613 189.401,24.737 177.219,24.737 z M186.61,35 C187.05,35.054 187.531,34.969 187.929,35.162 C188.881,35.622 189.086,36.442 189.012,37.402 C188.993,37.656 188.801,37.866 188.696,38.098 L182.711,46.794 L188.696,55.49 C189.954,57.318 187.742,59.53 185.914,58.272 L177.218,52.287 L168.522,58.272 C166.694,59.53 164.482,57.318 165.741,55.49 L171.725,46.794 L165.741,38.098 C164.482,36.27 166.694,34.058 168.522,35.316 L177.218,41.301 L185.914,35.316 L186.61,35 z M179.262,44.751 L178.352,45.377 C177.669,45.847 176.767,45.847 176.084,45.377 L175.175,44.751 L175.801,45.66 C176.271,46.343 176.271,47.245 175.801,47.928 L175.175,48.837 L176.084,48.211 C176.767,47.742 177.669,47.742 178.352,48.211 L179.262,48.837 L178.636,47.928 C178.166,47.245 178.166,46.343 178.636,45.66 L179.262,44.751 z" fill="#FFFFFF"/>
  </g>
</svg>
