<?xml version="1.0" encoding="UTF-8"?>
<!DOCTYPE svg PUBLIC "-//W3C//DTD SVG 1.1//EN" "http://www.w3.org/Graphics/SVG/1.1/DTD/svg11.dtd">
<svg version="1.1" xmlns="http://www.w3.org/2000/svg" xmlns:xlink="http://www.w3.org/1999/xlink" x="0" y="0" width="245.305" height="69.694" viewBox="0, 0, 245.305, 69.694">
  <g>
    <path d="M19.802,20.74 C31.176,20.74 37.408,25.847 38.978,36.474 C39.045,36.927 38.694,37.334 38.236,37.334 L31.25,37.334 C30.869,37.334 30.548,37.048 30.505,36.669 C29.832,30.798 26.221,27.977 19.297,27.977 C13.271,27.977 9.534,30.317 9.534,33.784 C9.534,36.703 11.798,38.449 17.58,39.675 L25.36,41.316 C31.151,42.567 34.141,43.77 36.556,45.846 C39.251,48.109 40.713,51.394 40.713,55.162 C40.713,64.221 33.018,69.845 20.953,69.845 C8.107,69.844 0.297,63.542 -0.747,52.225 C-0.787,51.785 -0.441,51.406 -0,51.406 L7.128,51.406 C7.513,51.406 7.836,51.698 7.874,52.082 C8.554,58.91 13.25,62.675 21.169,62.675 C27.727,62.675 32.229,59.712 32.229,55.639 C32.229,52.663 29.953,50.641 25.18,49.541 L14.38,47.083 C5.296,45.034 1.05,41.093 1.05,34.535 C1.05,26.071 8.409,20.74 19.802,20.74 z M19.802,22.24 C9.152,22.24 2.55,27.022 2.55,34.535 C2.55,40.284 6.242,43.71 14.711,45.62 L25.514,48.079 C30.895,49.319 33.729,51.835 33.729,55.639 C33.729,60.705 28.456,64.175 21.169,64.175 C13.916,64.283 7.539,60.436 6.477,52.906 L0.855,52.906 C2.107,64.047 10.799,68.036 20.953,68.345 C32.273,68.345 39.213,63.273 39.213,55.162 C39.213,51.828 37.94,48.966 35.585,46.989 C33.391,45.104 30.612,43.985 25.047,42.783 L17.269,41.143 C10.877,39.787 8.034,37.595 8.034,33.784 C8.034,29.303 12.548,26.477 19.297,26.477 C25.69,26.476 30.864,29.07 31.894,35.834 L37.339,35.834 C35.821,25.994 29.05,22.497 19.802,22.24 z" fill="#56C8F8"/>
    <path d="M55.8,21.765 C56.214,21.765 56.55,22.101 56.55,22.515 L56.55,68.069 C56.55,68.483 56.214,68.819 55.8,68.819 L48.959,68.819 C48.545,68.819 48.209,68.483 48.209,68.069 L48.209,22.515 C48.209,22.101 48.545,21.765 48.959,21.765 L55.8,21.765 z M55.05,23.265 L49.709,23.265 L49.709,67.319 L55.05,67.319 L55.05,23.265 z" fill="#56C8F8"/>
    <path d="M99.362,21.765 C99.776,21.765 100.112,22.101 100.112,22.515 L100.112,28.183 C100.112,28.597 99.776,28.933 99.362,28.933 L85.135,28.933 L85.135,68.069 C85.135,68.483 84.799,68.819 84.385,68.819 L77.544,68.819 C77.13,68.819 76.794,68.483 76.794,68.069 L76.794,28.933 L62.566,28.933 C62.152,28.933 61.816,28.597 61.816,28.183 L61.816,22.515 C61.816,22.101 62.152,21.765 62.566,21.765 L99.362,21.765 z M98.612,23.265 L63.316,23.265 L63.316,27.433 L77.544,27.433 C77.958,27.433 78.294,27.769 78.294,28.183 L78.294,67.319 L83.635,67.319 L83.635,28.183 C83.635,27.769 83.971,27.433 84.385,27.433 L98.612,27.433 L98.612,23.265 z" fill="#56C8F8"/>
    <path d="M124.848,20.739 C135.409,20.739 142.996,26.431 145.164,36.007 C145.265,36.449 144.953,36.878 144.502,36.92 L137.806,37.536 C137.434,37.57 137.094,37.326 137.008,36.964 C135.649,31.292 131.126,27.908 124.848,27.908 C116.086,27.908 110.332,34.638 110.332,44.984 C110.332,55.607 116.092,62.674 124.631,62.674 C131.739,62.674 136.612,58.176 137.642,50.62 C137.693,50.248 138.01,49.971 138.385,49.971 L145.297,49.971 C145.749,49.971 146.098,50.368 146.041,50.816 C145.443,55.499 144.296,58.475 141.789,61.762 C137.678,67.15 131.907,69.843 124.488,69.843 C117.107,69.843 111.21,67.127 107.046,61.768 C103.482,57.19 101.631,51.493 101.631,45.12 C101.631,30.851 111.246,20.739 124.848,20.739 z M124.848,22.239 C112.092,22.239 103.131,31.663 103.131,45.12 C103.131,51.168 104.877,56.539 108.23,60.847 C112.102,65.83 117.558,68.343 124.488,68.343 C131.451,68.343 136.778,65.858 140.597,60.852 C142.774,58.126 143.917,54.89 144.427,51.471 L139.016,51.471 C137.796,59.291 132.416,63.857 124.631,64.174 C115.188,64.174 108.832,56.376 108.832,44.984 C108.832,33.857 115.201,26.408 124.848,26.408 C131.038,26.388 136.571,29.886 138.289,35.985 L143.479,35.507 C141.193,26.469 133.608,22.532 124.848,22.239 z" fill="#56C8F8"/>
    <path d="M214.486,21.765 C214.734,21.765 214.966,21.888 215.106,22.093 L233.968,49.817 C235.464,52.001 236.855,54.258 238.165,56.559 C238.067,52.691 238.092,54.5 238.073,51.133 L238.073,22.787 C238.073,22.373 238.409,22.037 238.823,22.037 L245.304,22.037 C245.718,22.037 246.054,22.373 246.054,22.787 L246.054,68.069 C246.054,68.483 245.718,68.819 245.304,68.819 L238.392,68.819 C238.144,68.819 237.913,68.697 237.773,68.492 L218.112,39.732 C216.917,37.974 215.77,36.185 214.643,34.383 C214.732,38.545 214.708,36.651 214.732,40.066 L214.732,68.068 C214.732,68.482 214.396,68.818 213.982,68.818 L207.502,68.818 C207.088,68.818 206.752,68.482 206.752,68.068 L206.752,22.515 C206.752,22.101 207.088,21.765 207.502,21.765 L214.486,21.765 z M214.089,23.265 L208.252,23.265 L208.252,67.318 L213.232,67.318 L213.232,40.066 C213.232,37.291 213.143,33.291 213.018,31.514 C212.962,30.715 214.027,30.396 214.42,31.093 C215.521,33.051 216.896,35.22 219.354,38.892 L238.788,67.319 L244.554,67.319 L244.554,23.537 L239.573,23.537 L239.573,51.133 C239.573,54.317 239.644,57.105 239.789,59.627 C239.835,60.432 238.752,60.733 238.376,60.02 C236.891,57.199 234.454,53.149 232.732,50.666 L214.089,23.265 z" fill="#56C8F8"/>
    <g>
      <path d="M184.145,2.164 C188.201,-0.938 193.021,0.207 193.021,0.207 C193.021,0.207 192.216,5.969 188.16,9.071 C184.103,12.173 178.332,11.44 178.332,11.44 C178.332,11.44 179.587,9.538 180.845,7.064 C181.579,5.619 182.65,3.307 184.145,2.164 z" fill-opacity="0" stroke="#56C8F8" stroke-width="1.5" stroke-linecap="round" stroke-linejoin="round"/>
      <path d="M174.411,6.857 C172.517,5.409 170.266,5.943 170.266,5.943 C170.266,5.943 170.642,8.634 172.536,10.082 C174.43,11.531 177.125,11.188 177.125,11.188 C177.125,11.188 176.539,10.3 175.952,9.145 C175.609,8.47 175.109,7.391 174.411,6.857 z" fill-opacity="0" stroke="#56C8F8" stroke-width="1.5" stroke-linecap="round" stroke-linejoin="round"/>
      <path d="M174.871,20.592 C175.425,20.592 175.979,20.617 176.532,20.653 C176.038,17.705 176.135,14.635 177.65,11.999 C174.999,14.134 173.708,17.403 173.04,20.666 C173.649,20.622 174.26,20.592 174.871,20.592 z" fill-opacity="0" stroke="#56C8F8" stroke-width="1.5" stroke-linecap="round" stroke-linejoin="round"/>
      <path d="M174.871,21.579 C161.585,21.579 150.814,32.35 150.814,45.636 C150.814,58.922 161.585,69.693 174.871,69.693 C188.157,69.693 198.928,58.922 198.928,45.636 C198.928,32.35 188.157,21.579 174.871,21.579 z M184.7,55.466 L174.87,48.701 L165.04,55.466 L171.805,45.636 L165.04,35.806 L174.87,42.571 L184.7,35.806 L177.935,45.636 L184.7,55.466 z" fill-opacity="0" stroke="#56C8F8" stroke-width="1.5" stroke-linecap="round" stroke-linejoin="round"/>
    </g>
  </g>
</svg>
