<?xml version="1.0" encoding="UTF-8"?>
<!DOCTYPE svg PUBLIC "-//W3C//DTD SVG 1.1//EN" "http://www.w3.org/Graphics/SVG/1.1/DTD/svg11.dtd">
<svg version="1.1" xmlns="http://www.w3.org/2000/svg" xmlns:xlink="http://www.w3.org/1999/xlink" x="0px" y="0px" width="245.305" height="69.694" viewBox="0, 0, 245.305, 69.694">
  <g>
    <path d="M31.25,36.584 C30.53,30.301 26.57,27.227 19.297,27.227 C12.889,27.227 8.784,29.823 8.784,33.784 C8.784,37.131 11.305,39.111 17.425,40.409 L25.202,42.049 C30.89,43.278 33.77,44.44 36.074,46.42 C38.595,48.537 39.963,51.61 39.963,55.162 C39.963,63.767 32.618,69.095 20.953,69.095 C8.496,69.094 1.008,63.084 0,52.156 L7.128,52.156 C7.849,59.395 12.889,63.425 21.169,63.425 C28.082,63.425 32.979,60.215 32.979,55.639 C32.979,52.224 30.386,49.971 25.346,48.81 L14.545,46.351 C5.76,44.37 1.8,40.682 1.8,34.535 C1.8,26.544 8.784,21.49 19.802,21.49 C30.819,21.49 36.723,26.339 38.236,36.584 L31.25,36.584 z" fill="#67995B"/>
    <path d="M55.8,68.069 L48.959,68.069 L48.959,22.515 L55.8,22.515 L55.8,68.069 z" fill="#67995B"/>
    <path d="M84.385,68.069 L77.544,68.069 L77.544,28.183 L62.566,28.183 L62.566,22.515 L99.362,22.515 L99.362,28.183 L84.385,28.183 L84.385,68.069 z" fill="#67995B"/>
    <path d="M137.737,36.789 C136.297,30.778 131.472,27.158 124.848,27.158 C115.631,27.158 109.582,34.262 109.582,44.984 C109.582,55.98 115.631,63.424 124.631,63.424 C132.12,63.424 137.305,58.644 138.385,50.721 L145.297,50.721 C144.721,55.229 143.641,58.097 141.193,61.307 C137.233,66.497 131.688,69.093 124.488,69.093 C117.359,69.093 111.671,66.497 107.638,61.307 C104.182,56.868 102.381,51.335 102.381,45.12 C102.381,31.256 111.67,21.489 124.848,21.489 C135.073,21.489 142.345,26.953 144.433,36.173 L137.737,36.789 z" fill="#67995B"/>
    <path d="M238.392,68.069 L218.735,39.315 C216.358,35.764 214.919,33.51 213.766,31.461 C213.91,33.51 213.982,37.813 213.982,40.066 L213.982,68.068 L207.502,68.068 L207.502,22.515 L214.486,22.515 L233.352,50.244 C235.152,52.84 237.6,56.937 239.04,59.67 C238.895,57.143 238.823,54.343 238.823,51.133 L238.823,22.787 L245.304,22.787 L245.304,68.069 L238.392,68.069 z" fill="#67995B"/>
    <g>
      <path d="M184.145,2.164 C188.201,-0.938 193.021,0.207 193.021,0.207 C193.021,0.207 192.216,5.969 188.16,9.071 C184.103,12.173 178.332,11.44 178.332,11.44 C178.332,11.44 179.587,9.538 180.845,7.064 C181.579,5.619 182.65,3.307 184.145,2.164 z" fill="#67995B"/>
      <path d="M174.411,6.857 C172.517,5.409 170.266,5.943 170.266,5.943 C170.266,5.943 170.642,8.634 172.536,10.082 C174.43,11.531 177.125,11.188 177.125,11.188 C177.125,11.188 176.539,10.3 175.952,9.145 C175.609,8.47 175.109,7.391 174.411,6.857 z" fill="#67995B"/>
      <path d="M174.871,20.592 C175.425,20.592 175.979,20.617 176.532,20.653 C176.038,17.705 176.135,14.635 177.65,11.999 C174.999,14.134 173.708,17.403 173.04,20.666 C173.649,20.622 174.26,20.592 174.871,20.592 z" fill="#67995B"/>
      <path d="M174.871,21.579 C161.585,21.579 150.814,32.35 150.814,45.636 C150.814,58.922 161.585,69.693 174.871,69.693 C188.157,69.693 198.928,58.922 198.928,45.636 C198.928,32.35 188.157,21.579 174.871,21.579 z M184.7,55.466 L174.87,48.701 L165.04,55.466 L171.805,45.636 L165.04,35.806 L174.87,42.571 L184.7,35.806 L177.935,45.636 L184.7,55.466 z" fill="#67995B"/>
    </g>
  </g>
  <defs/>
</svg>
